<?xml version="1.0" encoding="UTF-8"?>
<svg width="781px" height="586px" viewBox="0 0 781 586" version="1.1" xmlns="http://www.w3.org/2000/svg" xmlns:xlink="http://www.w3.org/1999/xlink">
    <!-- Generator: Sketch 54 (76480) - https://sketchapp.com -->
    <title>Ilustra_01</title>
    <desc>Created with Sketch.</desc>
    <defs>
        <polygon id="path-1" points="0.570259688 0.102839676 587.917334 0.102839676 587.917334 585.338703 0.570259688 585.338703"></polygon>
        <path d="M294.24203,0.102839676 C132.052208,0.102839676 0.570456044,131.113938 0.570456044,292.720771 L0.570456044,292.720771 C0.570456044,454.329561 132.052208,585.338703 294.24203,585.338703 L294.24203,585.338703 C456.433815,585.338703 587.917531,454.329561 587.917531,292.720771 L587.917531,292.720771 C587.917531,131.113938 456.433815,0.102839676 294.24203,0.102839676 Z" id="path-3"></path>
    </defs>
    <g id="Home-|-Site" stroke="none" stroke-width="1" fill="none" fill-rule="evenodd">
        <g id="HOME-(2)" transform="translate(-933.000000, -59.000000)">
            <g id="Abertura-HOME" transform="translate(400.000000, 41.000000)">
                <g id="Ilustra_01" transform="translate(409.000000, 17.000000)">
                    <g id="Group-3" transform="translate(317.000000, 1.000000)">
                        <mask id="mask-2" fill="white">
                            <use xlink:href="#path-1"></use>
                        </mask>
                        <g id="Clip-2"></g>
                        <path d="M587.917334,292.720771 C587.917334,454.329561 456.433619,585.338703 294.243797,585.338703 C132.052011,585.338703 0.570259688,454.329561 0.570259688,292.720771 C0.570259688,131.111982 132.052011,0.100883177 294.243797,0.100883177 C456.433619,0.100883177 587.917334,131.111982 587.917334,292.720771" id="Fill-1" fill="#AED6EB" mask="url(#mask-2)"></path>
                    </g>
                    <g id="Group-42" transform="translate(317.000000, 1.000000)">
                        <mask id="mask-4" fill="white">
                            <use xlink:href="#path-3"></use>
                        </mask>
                        <g id="Clip-5"></g>
                        <polygon id="Fill-4" fill="#A2A0AD" mask="url(#mask-4)" points="-0.271909982 660.346969 682.136858 660.346969 682.136858 436.34542 -0.271909982 436.34542"></polygon>
                        <polygon id="Fill-6" fill="#6DCEF5" mask="url(#mask-4)" points="373.206481 362.561923 1118.05244 362.561923 1118.05244 147.697226 373.206481 147.697226"></polygon>
                        <polygon id="Fill-7" fill="#685BA7" mask="url(#mask-4)" points="373.206481 437.466495 1118.05244 437.466495 1118.05244 362.561923 373.206481 362.561923"></polygon>
                        <polygon id="Fill-8" fill="#48B7E2" mask="url(#mask-4)" points="373.059215 267.689321 1118.13491 267.689321 1118.13491 182.274436 373.059215 182.274436"></polygon>
                        <polygon id="Fill-9" fill="#DFDCE1" mask="url(#mask-4)" points="360.307874 183.23899 1136.85939 183.23899 1136.85939 114.614781 360.307874 114.614781"></polygon>
                        <polygon id="Fill-10" fill="#FEFEFE" mask="url(#mask-4)" points="360.292166 164.206166 1136.86528 164.206166 1136.86528 159.764913 360.292166 159.764913"></polygon>
                        <polygon id="Fill-11" fill="#503D97" mask="url(#mask-4)" points="676.32355 438.409331 373.768844 438.409331 373.768844 434.247858 672.147064 434.247858 672.147064 363.440196 676.32355 363.440196"></polygon>
                        <polygon id="Fill-12" fill="#503D97" mask="url(#mask-4)" points="373.897653 414.737843 675.236918 414.737843 675.236918 410.574413 373.897653 410.574413"></polygon>
                        <polygon id="Fill-13" fill="#503D97" mask="url(#mask-4)" points="373.897653 390.199431 675.236918 390.199431 675.236918 386.036 373.897653 386.036"></polygon>
                        <polygon id="Fill-14" fill="#503D97" mask="url(#mask-4)" points="396.890908 436.822806 401.069358 436.822806 401.069358 363.207568 396.890908 363.207568"></polygon>
                        <polygon id="Fill-15" fill="#503D97" mask="url(#mask-4)" points="421.971424 436.822806 426.149873 436.822806 426.149873 363.207568 421.971424 363.207568"></polygon>
                        <polygon id="Fill-16" fill="#503D97" mask="url(#mask-4)" points="447.055866 436.822806 451.234316 436.822806 451.234316 363.207568 447.055866 363.207568"></polygon>
                        <polygon id="Fill-17" fill="#503D97" mask="url(#mask-4)" points="472.136382 436.822806 476.314832 436.822806 476.314832 363.207568 472.136382 363.207568"></polygon>
                        <polygon id="Fill-18" fill="#503D97" mask="url(#mask-4)" points="497.218861 436.822806 501.395348 436.822806 501.395348 363.207568 497.218861 363.207568"></polygon>
                        <polygon id="Fill-19" fill="#503D97" mask="url(#mask-4)" points="522.301341 436.822806 526.47979 436.822806 526.47979 363.207568 522.301341 363.207568"></polygon>
                        <polygon id="Fill-20" fill="#503D97" mask="url(#mask-4)" points="547.38382 436.822806 551.560306 436.822806 551.560306 363.207568 547.38382 363.207568"></polygon>
                        <polygon id="Fill-21" fill="#503D97" mask="url(#mask-4)" points="572.466299 436.822806 576.644749 436.822806 576.644749 363.207568 572.466299 363.207568"></polygon>
                        <polygon id="Fill-22" fill="#FEFEFE" mask="url(#mask-4)" points="373.177028 365.473194 676.338473 365.473194 676.338473 361.309764 373.177028 361.309764"></polygon>
                        <path d="M517.543838,306.137269 L514.824311,302.435573 C512.265796,298.953004 513.000167,294.006974 516.456027,291.40483 C518.101488,290.168323 518.451001,287.812698 517.233596,286.155543 L514.11154,281.906027 L517.482968,279.446707 L520.605024,283.696223 C523.161575,287.180748 522.429168,292.128735 518.973308,294.728922 C517.32981,295.96543 516.980297,298.321055 518.197703,299.97821 L520.915266,303.679906 L517.543838,306.137269 Z" id="Fill-23" fill="#B7E3F6" mask="url(#mask-4)"></path>
                        <path d="M526.464082,305.89662 L523.744555,302.19688 C521.18604,298.714311 521.920411,293.766325 525.376271,291.166137 C527.021732,289.92963 527.371245,287.574005 526.15384,285.914893 L529.525268,283.455574 C532.081819,286.940099 531.351376,291.888085 527.893552,294.488273 C526.250054,295.726737 525.900541,298.082362 527.117946,299.739517 L529.83551,303.4373 L526.464082,305.89662 Z" id="Fill-24" fill="#B7E3F6" mask="url(#mask-4)"></path>
                        <path d="M550.061327,330.047059 C547.948539,330.047059 545.841642,329.217503 544.274724,327.572087 L547.306456,324.707772 C548.74378,326.222103 551.155028,326.286667 552.66893,324.852553 C553.405264,324.15604 553.825466,323.218876 553.852955,322.209323 C553.878482,321.201726 553.511296,320.241085 552.81227,319.507398 C552.115207,318.775667 551.1727,318.356976 550.161468,318.331542 C549.154163,318.296325 548.184166,318.670016 547.449795,319.364573 L544.575148,316.343738 C546.120467,314.886146 548.162567,314.117242 550.271427,314.170068 C552.399923,314.22485 554.379189,315.103318 555.844002,316.643083 C557.308816,318.184804 558.084421,320.199998 558.029442,322.320843 C557.970535,324.441688 557.088898,326.41384 555.543578,327.873388 C554.006113,329.327067 552.030774,330.047059 550.061327,330.047059" id="Fill-25" fill="#B7E3F6" mask="url(#mask-4)"></path>
                        <path d="M500.190116,313.980483 L507.700722,327.047941 C510.81296,332.457661 516.632944,335.818927 522.892764,335.818927 C529.132949,335.818927 534.947042,332.471357 538.05928,327.079245 L545.630756,313.980483 L500.190116,313.980483 Z M522.892764,339.982357 C515.138677,339.982357 507.930458,335.818927 504.075996,329.115961 L492.983861,309.817053 L552.854683,309.817053 L541.682043,329.159004 C537.823653,335.834579 530.623289,339.982357 522.892764,339.982357 L522.892764,339.982357 Z" id="Fill-26" fill="#B7E3F6" mask="url(#mask-4)"></path>
                        <polygon id="Fill-27" fill="#B7E3F6" mask="url(#mask-4)" points="497.452525 340.741088 549.4593 340.741088 549.4593 336.577657 497.452525 336.577657"></polygon>
                        <path d="M577.955816,312.536195 L573.777366,312.536195 C573.777366,285.293901 551.534191,263.130678 524.193621,263.130678 C496.853051,263.130678 474.609875,285.293901 474.609875,312.536195 L470.431425,312.536195 C470.431425,282.998927 494.549798,258.967247 524.193621,258.967247 C553.837443,258.967247 577.955816,282.998927 577.955816,312.536195" id="Fill-28" fill="#B7E3F6" mask="url(#mask-4)"></path>
                        <path d="M399.941294,230.985983 C399.941294,241.071736 391.735589,249.249903 381.611488,249.249903 C371.489351,249.249903 363.281682,241.071736 363.281682,230.985983" id="Fill-29" fill="#DFDCE1" mask="url(#mask-4)"></path>
                        <path d="M434.817407,230.985983 C434.817407,241.071736 426.609738,249.249903 416.487601,249.249903 C406.365464,249.249903 398.157795,241.071736 398.157795,230.985983" id="Fill-30" fill="#503D97" mask="url(#mask-4)"></path>
                        <path d="M470.479729,230.985983 C470.479729,241.071736 462.274024,249.249903 452.149923,249.249903 C442.027786,249.249903 433.820117,241.071736 433.820117,230.985983" id="Fill-31" fill="#DFDCE1" mask="url(#mask-4)"></path>
                        <path d="M505.2773,230.985983 C505.2773,241.071736 497.069631,249.249903 486.947494,249.249903 C476.825357,249.249903 468.617688,241.071736 468.617688,230.985983" id="Fill-32" fill="#503D97" mask="url(#mask-4)"></path>
                        <path d="M540.839873,230.985983 C540.839873,241.071736 532.632204,249.249903 522.510067,249.249903 C512.385966,249.249903 504.180261,241.071736 504.180261,230.985983" id="Fill-33" fill="#DFDCE1" mask="url(#mask-4)"></path>
                        <path d="M575.518649,230.985983 C575.518649,241.071736 567.31098,249.249903 557.188843,249.249903 C547.066705,249.249903 538.859037,241.071736 538.859037,230.985983" id="Fill-34" fill="#503D97" mask="url(#mask-4)"></path>
                        <path d="M611.255782,230.985983 C611.255782,241.071736 603.050077,249.249903 592.925976,249.249903 C582.803839,249.249903 574.59617,241.071736 574.59617,230.985983" id="Fill-35" fill="#DFDCE1" mask="url(#mask-4)"></path>
                        <polygon id="Fill-36" fill="#685BA7" mask="url(#mask-4)" points="413.310369 183.399423 373.856615 183.399423 326.784259 230.973657 365.56255 230.973657 1069.87676 230.973657 1069.918 230.973657 1118.72614 183.399423"></polygon>
                        <polygon id="Fill-37" fill="#FEFEFE" mask="url(#mask-4)" points="410.55491 183.399423 363.482553 230.973657 398.090249 230.973657 445.840032 183.399423"></polygon>
                        <polygon id="Fill-38" fill="#FEFEFE" mask="url(#mask-4)" points="480.982207 183.399423 433.907888 230.973657 468.517546 230.973657 516.265366 183.399423"></polygon>
                        <polygon id="Fill-39" fill="#FEFEFE" mask="url(#mask-4)" points="551.409309 183.399423 504.334989 230.973657 538.942684 230.973657 586.692467 183.399423"></polygon>
                        <polygon id="Fill-40" fill="#FEFEFE" mask="url(#mask-4)" points="621.836606 183.399423 574.762287 230.973657 609.369982 230.973657 657.119765 183.399423"></polygon>
                        <path d="M363.44289,230.985983 C363.44289,241.071736 355.235221,249.249903 345.113083,249.249903 C334.990946,249.249903 326.783277,241.071736 326.783277,230.985983" id="Fill-41" fill="#503D97" mask="url(#mask-4)"></path>
                    </g>
                    <g id="Group-132" transform="translate(124.000000, 177.000000)">
                        <path d="M206.717842,46 L433,46 L422.440527,35.4567848 C406.331656,19.3727161 380.215128,19.3727161 364.10834,35.4567848 L361.093132,32.4420615 C317.768266,-10.8140205 247.527259,-10.8140205 204.202393,32.4420615 C174.516759,2.80421248 126.604529,2.10562831 96.065142,30.868168 L80,46 L206.717842,46 Z" id="nuvem" fill="#FEFEFE"></path>
                        <path d="M206.717842,46 L433,46 L422.440527,35.4567848 C406.331656,19.3727161 380.215128,19.3727161 364.10834,35.4567848 L361.093132,32.4420615 C317.768266,-10.8140205 247.527259,-10.8140205 204.202393,32.4420615 C174.516759,2.80421248 126.604529,2.10562831 96.065142,30.868168 L80,46 L206.717842,46 Z" id="nuvem-copy" fill="#FEFEFE"></path>
                        <polygon id="Fill-45" fill="#DFDCE1" points="590 320 640 320 640 318 590 318"></polygon>
                        <path d="M603.355636,244.326464 C601.225006,248.791515 601.376601,236.601053 600.992423,232.959935 C600.608245,229.316737 598.315638,231.461875 595.985651,236.107942 C593.655664,240.751927 594.554848,232.991145 593.524836,229.09827 C592.926765,226.834535 592.555047,225.084718 591.342291,226.522439 C589.96548,228.157821 589.720437,231.08528 587.803701,232.279566 C586.630401,233.009871 585.751984,232.079825 584.807114,231.37865 C583.583975,230.473572 582.203011,229.212705 580.967412,228.324272 C578.340466,226.430891 576.745609,228.076676 578.448451,230.59841 C579.301949,231.863439 580.261355,233.30116 581.035941,234.611962 C581.634012,235.627314 582.522813,236.723811 581.679698,237.816146 C580.296658,239.605495 577.36237,239.551399 575.601382,240.754008 C574.048057,241.817214 575.746746,242.366503 577.933445,243.194597 C581.692158,244.619834 589.48993,244.517883 584.640983,246.363409 C579.789959,248.211017 577.426746,250.27501 581.002715,251.032363 C584.578684,251.787634 596.695861,252.884131 592.046271,254.550723 C587.392527,256.219395 580.948722,259.508885 589.676828,259.958302 C595.370966,260.249592 599.750594,259.046983 603.775117,255.330962 C608.136054,251.304926 608.673903,248.2235 608.964632,242.518389 C609.413186,233.773465 605.486265,239.861414 603.355636,244.326464" id="Fill-47" fill="#69B044"></path>
                        <path d="M623.645983,244.326464 C625.774482,248.791515 625.622891,236.601053 626.009136,232.959935 C626.391227,229.316737 628.683776,231.461875 631.01578,236.107942 C633.345707,240.751927 632.44447,232.991145 633.474456,229.09827 C634.074588,226.834535 634.44422,225.084718 635.659022,226.522439 C637.033721,228.157821 637.278758,231.08528 639.197521,232.279566 C640.368715,233.009871 641.24711,232.079825 642.194032,231.37865 C643.41714,230.473572 644.798069,229.212705 646.03156,228.324272 C648.660515,226.430891 650.253255,228.076676 648.550456,230.59841 C647.69698,231.863439 646.737598,233.30116 645.965109,234.611962 C645.364976,235.627314 644.476198,236.723811 645.321368,237.816146 C646.704373,239.605495 649.638586,239.551399 651.39953,240.754008 C652.950738,241.817214 651.254169,242.366503 649.067526,243.194597 C645.308908,244.619834 637.509259,244.517883 642.360159,246.363409 C647.211059,248.211017 649.572136,250.27501 645.998334,251.032363 C642.422457,251.787634 630.303512,252.884131 634.95506,254.550723 C639.606608,256.219395 646.052326,259.508885 637.324443,259.958302 C631.630449,260.249592 627.250933,259.046983 623.226513,255.330962 C618.865686,251.304926 618.325775,248.2235 618.035053,242.518389 C617.588587,233.773465 621.515408,239.861414 623.645983,244.326464" id="Fill-49" fill="#69B044"></path>
                        <path d="M620.3731,236.922725 C615.87234,238.628416 624.18703,230.108128 626.368727,227.270756 C628.550424,224.433383 625.500089,224.3864 620.740756,226.081878 C615.977384,227.779399 621.835645,222.903367 623.73453,219.445001 C624.837499,217.43494 625.75664,215.943736 623.938559,216.133711 C621.872007,216.352285 619.730711,218.256123 617.581336,217.794463 C616.268277,217.510521 616.280398,216.254233 616.088489,215.112339 C615.842038,213.63952 615.720833,211.803093 615.454181,210.330274 C614.886536,207.202831 612.660396,207.278413 612.157394,210.226094 C611.904883,211.698913 611.607929,213.373963 611.266534,214.828398 C611.003923,215.95395 610.888777,217.334845 609.559558,217.532992 C607.385941,217.855745 605.367871,215.815043 603.32354,215.465734 C601.5196,215.159322 602.339757,216.70568 603.31546,218.781109 C604.992135,222.353869 610.525161,227.603723 605.880974,225.59979 C601.236787,223.599943 598.192512,223.446738 600.190381,226.418931 C602.18623,229.393167 609.943375,238.436398 605.55978,236.442679 C601.178205,234.448961 594.445245,232.377617 600.261084,238.650887 C604.054813,242.742504 607.933386,244.879215 613.258343,244.993609 C619.02368,245.122302 621.476069,243.308345 625.52231,239.470027 C631.721966,233.588965 624.873861,235.219075 620.3731,236.922725" id="Fill-51" fill="#69B044"></path>
                        <path d="M613.35974,282 C613.330963,281.83021 610.603837,264.602723 612.954655,223 L614.612624,223.082824 C612.272874,264.484699 614.973437,281.596231 615,281.76395 L613.35974,282 Z" id="Fill-53" fill="#068F46"></path>
                        <path d="M618.46606,269 L617,268.409128 C617.088852,268.196331 626.103109,247.069555 638.948584,236 L640,237.16315 C627.431659,247.990985 618.554912,268.789269 618.46606,269" id="Fill-55" fill="#068F46"></path>
                        <path d="M609.61711,272 C609.515365,271.799807 599.305648,251.974411 586,238.102113 L587.11711,237 C600.584718,251.045096 610.896179,271.070685 611,271.26877 L609.61711,272 Z" id="Fill-57" fill="#068F46"></path>
                        <polygon id="Fill-59" fill="#454E65" points="593 265 602.246007 320 625.810271 320 636 265"></polygon>
                        <polygon id="Fill-61" fill="#DFDCE1" points="0 410 621 410 621 407 0 407"></polygon>
                        <polygon id="Fill-63" fill="#48B7E2" points="551.340883 410 540 247.195351 542.659117 247 554 409.80257"></polygon>
                        <path d="M523.243343,109.755718 C533.514935,112.750512 535.825212,123.523881 535.544738,133.371624 C535.091824,149.368759 563.621252,149.368759 562.989665,170.952855 C562.358079,192.53695 532.906202,197.169229 510.135845,163.844631 C490.012335,134.386492 502.729247,103.772358 523.243343,109.755718" id="Fill-65" fill="#503D97"></path>
                        <path d="M535.148024,165 L535.148024,165 C524.194852,165 515.310589,173.873352 515.296049,184.82816 L515.242041,222.430193 C515.217114,239.274098 501.561481,252.914318 484.725627,252.914318 L463,253 L524.479431,253 C541.336058,253 555,239.332613 555,222.471989 L555,184.857418 C555,173.890071 546.109506,165 535.148024,165" id="Fill-67" fill="#454E65"></path>
                        <path d="M385.255838,161.967952 L376.843642,160.766074 C375.0467,160.510079 373.782572,158.785363 374.031218,156.93482 C374.279865,155.079937 375.94935,153.776095 377.744202,154.032091 L386.158488,155.233968 C387.951251,155.487794 389.217468,157.214679 388.968821,159.065223 C388.720175,160.917936 387.048601,162.223947 385.255838,161.967952" id="Fill-69" fill="#FEFEFE"></path>
                        <path d="M386.990244,155.079749 C382.235401,154.141111 381.472735,161.802822 386.10218,161.562414 L438.487679,168.952359 C441.137481,169.32656 443.585824,167.455555 443.953795,164.775524 C444.338212,161.95752 442.278397,159.402919 439.470305,159.218955 L386.990244,155.079749 Z" id="Fill-71" fill="#FEFEFE"></path>
                        <path d="M512.923481,158.062962 L512.923481,158.062962 C512.352623,154.289459 508.715502,151.626279 504.704804,152.042899 L440.915615,158.607159 C437.771698,158.934077 435.561722,161.684966 436.073815,164.633202 C436.529243,167.238574 438.972179,169.112368 441.765606,168.994758 L505.852816,166.114297 C510.264374,165.930905 513.548906,162.191289 512.923481,158.062962" id="Fill-73" fill="#FEFEFE"></path>
                        <path d="M427.56386,198.247734 C422.670603,197.970189 422.955627,205.828966 427.56386,204.928014 L481.09218,204.998467 C483.800947,205.002737 486,202.763167 486,199.998398 C486,197.094857 483.584579,194.804048 480.744742,195.013274 L427.56386,198.247734 Z" id="Fill-75" fill="#FEFEFE"></path>
                        <path d="M516.796206,208 L522.768955,215.221677 C529.846153,223.777706 529.729895,235.970856 522.494918,244.399515 C517.929721,249.718728 511.141091,252.04778 504.001612,251.999258 C477.031861,251.817301 396.124684,251.999258 396.124684,251.999258 C388.860643,251.948714 383,246.23526 383,239.201606 C383,233.245542 387.22888,228.082003 393.222389,226.739564 C415.359134,221.776177 481.688404,210.383639 493.422145,208.378067 C494.611713,208.17387 495.81166,208.070761 497.019911,208.066718 L516.796206,208" id="Fill-77" fill="#503D97"></path>
                        <path d="M392.705691,233 C387.826169,233 383.616922,236.351059 382.630479,241.024304 L348.67828,402.581801 C348.094423,404.786826 346.060411,406.326614 343.731309,406.326614 L329,406.326614 L329,409 L357.486713,409 L402.637573,245.683042 C404.406005,239.289711 399.480111,233 392.705691,233" id="Fill-79" fill="#503D97"></path>
                        <polygon id="Fill-81" fill="#48B7E2" points="434.659117 410 432 409.80257 443.340883 247 446 247.195351"></polygon>
                        <path d="M542.768215,214.422452 L536.795498,207 L496.836217,207 C496.836217,207 437.540862,220.656315 413.222335,226.258479 C407.228858,227.638241 403,232.947413 403,239.066988 C403,239.900248 403.259503,242.649381 403.357076,243.237442 L432.041479,402.564576 L432.031099,402.564576 C432.236625,404.773441 430.779257,406.319439 428.483176,406.319439 L413.975931,406.319439 L414.922597,409 L442.980041,409 L425.101336,252.284855 C425.101336,252.284855 499.275543,252.112384 524.000971,252.284855 C531.140413,252.332648 537.929006,249.876506 542.49418,244.413564 L542.49418,244.411486 C549.731194,235.748496 549.845375,223.214276 542.768215,214.422452" id="Fill-83" fill="#685BA7"></path>
                        <polygon id="Fill-85" fill="#48B7E2" points="472.255683 409 448 210.32922 450.746397 210 475 408.672851"></polygon>
                        <polygon id="Fill-87" fill="#685BA7" points="203 212 467 212 467 205 203 205"></polygon>
                        <path d="M527.885897,152 L510.026995,152 C505.347146,152 501.034303,154.501028 498.761766,158.533087 L494.069476,166.8582 C491.311745,171.757501 490.372457,177.450062 491.413345,182.95561 L495.962565,207 L535.875024,207 L540.901145,166.490341 C541.857021,158.789971 535.758909,152 527.885897,152" id="Fill-89" fill="#FAC517"></path>
                        <path d="M427.742655,204 L419.257345,204 C417.465493,204 416,202.425335 416,200.5 C416,198.574665 417.465493,197 419.257345,197 L427.742655,197 C429.534507,197 431,198.574665 431,200.5 C431,202.425335 429.534507,204 427.742655,204" id="Fill-90" fill="#FEFEFE"></path>
                        <path d="M538.150198,156.465273 L538.150198,156.465273 C535.511676,153.516604 530.977236,153.164739 527.903109,155.671005 L478.980521,195.472895 C476.570174,197.437989 476.323331,200.995734 478.441201,203.263308 C480.312228,205.269556 483.407098,205.576151 485.647352,203.981442 L536.936727,167.198182 C540.475499,164.675455 541.039711,159.693788 538.150198,156.465273" id="Fill-91" fill="#FEFEFE"></path>
                        <path d="M516.029387,143 L515.972712,143 C510.485726,143 506,138.625575 506,133.279284 L506,124.71867 C506,119.374425 510.485726,115 515.972712,115 L516.029387,115 C521.512175,115 526,119.374425 526,124.71867 L526,133.279284 C526,138.625575 521.512175,143 516.029387,143" id="Fill-92" fill="#FEFEFE"></path>
                        <path d="M510,113 C512.14308,122.109586 521.096532,127.718124 530,125.524877 L527.702801,114.983141" id="Fill-93" fill="#503D97"></path>
                        <polygon id="Fill-94" fill="#48B7E2" points="262.754079 410 260 409.669148 284.245921 211 287 211.328771"></polygon>
                        <polygon id="Fill-95" fill="#48B7E2" points="404.244216 409 380 212.325821 382.757874 212 407 408.674179"></polygon>
                        <polygon id="Fill-96" fill="#48B7E2" points="132.659117 410 144 247.195351 141.340883 247 130 409.80257"></polygon>
                        <polygon id="Fill-97" fill="#48B7E2" points="232.340883 410 235 409.80257 223.659117 247 221 247.195351"></polygon>
                        <polygon id="Fill-98" fill="#48B7E2" points="183.746397 409 208 210.32922 205.255683 210 181 408.672851"></polygon>
                        <path d="M146.55647,183 L146.55647,183 C156.796114,183 165.100344,191.168207 165.115038,201.251617 L165.163319,235.862523 C165.186409,251.367144 177.953428,263.923059 193.692841,263.923059 L214,264 L156.527423,264 C140.771217,264 128,251.419131 128,235.899954 L128,201.278651 C128,191.184843 136.308428,183 146.55647,183" id="Fill-99" fill="#FAC517"></path>
                        <path d="M164.433191,222 L158.870979,228.730725 C152.282829,236.701695 152.387303,248.063484 159.125896,255.918373 C163.375911,260.873245 169.696607,263.042147 176.343262,262.99938 C201.454707,262.830348 276.780685,262.99938 276.780685,262.99938 C283.542262,262.95254 289,257.62702 289,251.073473 C289,245.525971 285.061319,240.711619 279.48448,239.46119 C258.873788,234.838272 197.119023,224.221852 186.1931,222.352319 C185.085672,222.162922 183.969887,222.065169 182.845743,222.061096 L164.433191,222" id="Fill-100" fill="#303747"></path>
                        <path d="M279.458898,246 C283.94402,246 287.811443,249.103971 288.7181,253.432103 L319.917127,403.055563 C320.453164,405.097212 322.323012,406.522632 324.462972,406.522632 L338,406.522632 L338,409 L311.824225,409 L270.333706,257.74571 C268.70675,251.826171 273.23375,246 279.458898,246" id="Fill-101" fill="#303747"></path>
                        <path d="M140.87122,228.872859 L146.431333,222 L183.636655,222 C183.636655,222 238.840778,234.641486 261.484498,239.829923 C267.063415,241.108836 271,246.022775 271,251.689504 C271,252.456852 270.75762,255.002202 270.667772,255.54704 L243.962099,403.044215 L243.972546,403.044215 C243.780314,405.088397 245.136388,406.519116 247.273928,406.519116 L260.782431,406.519116 L259.90067,409 L233.777962,409 L250.424868,263.921322 C250.424868,263.921322 181.363298,263.763278 158.343471,263.921322 C151.696828,263.969152 145.376144,261.694142 141.124048,256.636715 C134.387557,248.613874 134.283083,237.012155 140.87122,228.872859" id="Fill-102" fill="#454E65"></path>
                        <polygon id="Fill-103" fill="#48B7E2" points="203 231.105199 149.897592 241 140 187.894801 193.104464 178"></polygon>
                        <path d="M184.75117,153.906024 L251.467195,162 L253,152.028023 L187.232754,139.154432 C182.826204,138.275281 178.590433,141.247062 178.0549,145.593292 C177.553101,149.685682 180.547026,153.404536 184.75117,153.906024" id="Fill-104" fill="#454E65"></path>
                        <path d="M309.50101,154 L323.377173,154.701616 C324.853835,154.77547 326.01407,156.160237 325.999871,157.83119 C325.985672,159.529838 324.768643,160.896142 323.269669,160.905374 L309,161" id="Fill-105" fill="#DFDCE1"></path>
                        <polyline id="Fill-106" fill="#454E65" points="250.924742 151 314 154.845613 313.939871 161.327383 250 162 250.103671 152.207368"></polyline>
                        <path d="M181.934709,139.174646 C188.352141,137.986789 194.224383,143.014897 193.993406,149.499223 L192.345349,195.365892 L156.531331,202 L146,145.829557 L181.934709,139.174646 Z" id="Fill-107" fill="#48B7E2"></path>
                        <path d="M114.172472,161.399122 C113.152419,155.902964 116.761678,150.618756 122.232121,149.592253 L146.760684,145 L160.582808,219.529562 C163.04862,232.803458 154.330872,245.572414 141.11749,248.045166 L125.335466,251 L114.172472,161.399122 Z" id="Fill-108" fill="#454E65"></path>
                        <path d="M115.082537,154.417139 L79,209.294999 L87.4099189,215 L127.433827,163.043811 C130.129899,159.568778 129.249888,154.559609 125.526444,152.1913 C122.020928,149.959267 117.348981,150.954494 115.082537,154.417139" id="Fill-109" fill="#454E65"></path>
                        <path d="M98.7183429,271 L100.966625,284.825791 C101.205146,286.296051 100.140635,287.680068 98.5593289,287.953175 C96.9515203,288.228336 95.4055505,287.26322 95.0831054,285.782692 L92,271.706382" id="Fill-110" fill="#DFDCE1"></path>
                        <polyline id="Fill-111" fill="#454E65" points="90.3308311 208.569967 99 270.820687 92.4176944 272 79 209.767933 88.9453083 208"></polyline>
                        <path d="M163.903327,142 L161.291706,146.218775 L172.972521,186.474372 C173.049038,186.898504 172.964467,187.336977 172.734918,187.703738 L169.901802,192.205268 C169.364174,193.063775 168.208375,193.260474 167.41905,192.629399 L163.395904,189.404362 C162.991173,189.07858 162.755583,188.582735 162.755583,188.058206 L159.47545,146.560949 L156,143.489582 L163.903327,142 Z" id="Fill-112" fill="#FEFEFE"></path>
                        <polygon id="Fill-113" fill="#48B7E2" points="137 166.444859 124 169 129.359438 161"></polygon>
                        <path d="M184.55082,187.519225 L176,140.785445 L184.483005,139.175387 C189.949283,138.137794 195.208006,141.810411 196.227282,147.377213 L201.56615,176.564516 C204.584933,193.054458 210.536188,208.841446 219.128108,223.15097 L226,234.596063 L220.342608,235.669435 C212.543915,237.149005 204.658912,233.575307 200.520159,226.682574 C193.229049,214.536632 187.859356,201.319423 184.55082,187.519225" id="Fill-114" fill="#454E65"></path>
                        <path d="M160.181383,141.793838 L160.181383,141.793838 C166.681008,140.565912 171.009366,134.17657 169.796129,127.589109 L167.839558,116.948461 C166.628347,110.365128 160.319113,105.979678 153.819488,107.20554 C147.319863,108.433466 142.993531,114.826935 144.202716,121.410269 L146.161313,132.050917 C147.372524,138.636315 153.681758,143.021764 160.181383,141.793838" id="Fill-115" fill="#DFDCE1"></path>
                        <path d="M145.332816,126.307898 C144.937365,127.634861 145.224965,129.089094 145.836117,130.30339 C146.381712,131.386241 147.375626,132.285488 146.741213,133.587413 C146.316156,134.45745 145.324357,134.995746 144.338902,134.999919 C139.284743,135.029129 139.136714,127.184194 138.421941,123.948159 C137.37093,119.184865 135.98368,113.899966 138.123767,109.220129 C140.36959,104.30244 145.920705,103.805873 150.746475,103.411539 C153.032477,103.225848 155.982498,103.428231 158.082406,102.570713 C160.529126,101.571318 162.413334,99.278344 165.170916,99.0196281 C167.932728,98.7609121 170.533822,101.097701 170.935617,103.789181 C171.337412,106.482748 169.816935,109.234734 167.537277,110.78703 C166.596231,110.958116 165.515614,111.899091 164.525929,112.187017 C163.472804,112.497893 162.377383,112.57509 161.311569,112.829633 C159.277218,113.313683 157.306307,113.315769 155.204285,113.365843 C154.599478,113.380448 153.965065,113.401312 153.444846,113.703843 C152.446702,114.277608 152.260608,115.58162 152.032219,116.695767 C151.600818,118.778013 150.606904,121.04595 149.075854,122.5899 C147.864124,123.810455 145.863608,124.532356 145.332816,126.307898" id="Fill-116" fill="#503D97"></path>
                        <path d="M127.5,347.392854 C121.927245,347.392854 117.39327,351.926575 117.39327,357.501024 C117.39327,363.073425 121.927245,367.607146 127.5,367.607146 C133.072755,367.607146 137.60673,363.073425 137.60673,357.501024 C137.60673,351.926575 133.072755,347.392854 127.5,347.392854 M127.5,370 C120.607381,370 115,364.392772 115,357.501024 C115,350.607228 120.607381,345 127.5,345 C134.392619,345 140,350.607228 140,357.501024 C140,364.392772 134.392619,370 127.5,370" id="Fill-117" fill="#FAC517"></path>
                        <path d="M157.827356,410 L81.1726444,410 C79.9711534,410 79,409.035617 79,407.845047 L79,356.152897 C79,354.964383 79.9711534,354 81.1726444,354 L157.827356,354 C159.026772,354 160,354.964383 160,356.152897 L160,407.845047 C160,409.035617 159.026772,410 157.827356,410" id="Fill-118" fill="#0F77BD"></path>
                        <path d="M167.825336,410 L91.1746638,410 C89.9711285,410 89,409.035617 89,407.845047 L89,356.152897 C89,354.964383 89.9711285,354 91.1746638,354 L167.825336,354 C169.026796,354 170,354.964383 170,356.152897 L170,407.845047 C170,409.035617 169.026796,410 167.825336,410" id="Fill-119" fill="#48B7E2"></path>
                        <path d="M156.455754,352 L148.542243,352 C147.695011,352 147,351.324026 147,350.5 C147,349.675974 147.695011,349 148.542243,349 L156.455754,349 C157.304989,349 158,349.675974 158,350.5 C158,351.324026 157.304989,352 156.455754,352" id="Fill-120" fill="#FAC517"></path>
                        <path d="M104.457757,352 L96.5442462,352 C95.6950109,352 95,351.324026 95,350.5 C95,349.675974 95.6950109,349 96.5442462,349 L104.457757,349 C105.304989,349 106,349.675974 106,350.5 C106,351.324026 105.304989,352 104.457757,352" id="Fill-121" fill="#FAC517"></path>
                        <path d="M361.783451,147 L360.586395,144.969814 C359.604876,143.300089 359.883415,140.926014 361.213109,139.680971 C362.131625,138.821249 362.325608,137.182598 361.647497,136.030778 L360.273039,133.696064 L361.039022,133 L362.41348,135.332643 C363.396658,137.004439 363.114802,139.374371 361.785109,140.621486 C360.86825,141.483279 360.674268,143.119858 361.352378,144.27375 L362.549434,146.303936 L361.783451,147 Z" id="Fill-122" fill="#503D97"></path>
                        <path d="M366.7831,148 L365.58628,145.911932 C364.604954,144.194602 364.883438,141.752841 366.21287,140.472301 C367.131206,139.588068 367.32515,137.902699 366.647173,136.715909 L367.413006,136 C368.39599,137.71733 368.115848,140.15696 366.786416,141.439631 C365.86808,142.323864 365.674135,144.009233 366.352112,145.196023 L367.548933,147.284091 L366.7831,148 Z" id="Fill-123" fill="#503D97"></path>
                        <path d="M377.946499,161 L377.834606,161 C376.750786,160.969529 375.743755,160.527704 375,159.752879 L375.910497,158.8997 C376.426079,159.435113 377.121567,159.741996 377.867516,159.761585 C378.628823,159.778996 379.326505,159.51129 379.868415,159.004171 C380.412519,158.497051 380.721868,157.811461 380.73942,157.073635 C380.76136,156.33581 380.489308,155.634984 379.975919,155.099571 C379.458143,154.564157 378.764849,154.259451 378.016706,154.239862 C377.261981,154.222451 376.559911,154.490157 376.015807,154.9951 L375.153578,154.096215 C375.939018,153.360566 376.970183,152.973153 378.051809,153.001447 C379.133435,153.029741 380.140467,153.471566 380.886416,154.246392 C381.632365,155.023394 382.025085,156.039809 381.998757,157.106283 C381.968042,158.174933 381.520472,159.167406 380.735032,159.903056 C379.973725,160.612587 378.988634,161 377.946499,161" id="Fill-124" fill="#503D97"></path>
                        <path d="M372.840389,160.731969 L378,152 L349,152 L354.124356,160.711653 C356.044694,163.982586 359.617849,166 363.487557,166 C367.34897,166 370.91383,163.990713 372.840389,160.731969" id="Fill-125" fill="#503D97"></path>
                        <path d="M338.216259,147 L339.41303,144.969814 C340.395973,143.300089 340.115843,140.926014 338.786466,139.680971 C337.868168,138.821249 337.674232,137.182598 338.353838,136.030778 L339.726312,133.696064 L338.960511,133 L337.58638,135.332643 C336.603437,137.004439 336.885225,139.374371 338.214602,140.621486 C339.131242,141.483279 339.325178,143.119858 338.647229,144.27375 L337.450459,146.303936 L338.216259,147 Z" id="Fill-126" fill="#503D97"></path>
                        <path d="M334.216259,148 L335.41303,145.911932 C336.395973,144.194602 336.115843,141.752841 334.786466,140.472301 C333.868168,139.588068 333.674232,137.902699 334.352181,136.715909 L333.58638,136 C332.603437,137.71733 332.885225,140.15696 334.214602,141.439631 C335.131242,142.323864 335.325178,144.009233 334.647229,145.196023 L333.450459,147.284091 L334.216259,148 Z" id="Fill-127" fill="#503D97"></path>
                        <path d="M321.053589,161 L321.163284,161 C322.247072,160.969529 323.254073,160.527704 324,159.752879 L323.087337,158.8997 C322.571769,159.435113 321.878496,159.741996 321.130376,159.761585 C320.371285,159.778996 319.67143,159.51129 319.129536,159.004171 C318.587642,158.497051 318.276108,157.811461 318.258557,157.073635 C318.236618,156.33581 318.508662,155.634984 319.024229,155.099571 C319.539796,154.564157 320.233069,154.259451 320.98119,154.239862 C321.735893,154.222451 322.440135,154.490157 322.982029,154.9951 L323.844233,154.096215 C323.058816,153.360566 322.027682,152.973153 320.946088,153.001447 C319.864494,153.029741 318.857492,153.471566 318.111566,154.246392 C317.365639,155.023394 316.97293,156.039809 317.001451,157.106283 C317.029972,158.174933 317.479722,159.167406 318.265139,159.903056 C319.024229,160.612587 320.009291,161 321.053589,161" id="Fill-128" fill="#503D97"></path>
                        <path d="M327.161685,160.731969 L322,152 L351,152 L345.875644,160.711653 C343.955306,163.982586 340.382151,166 336.514517,166 C332.65103,166 329.088244,163.990713 327.161685,160.731969" id="Fill-129" fill="#503D97"></path>
                        <polygon id="Fill-130" fill="#503D97" points="331 166.569 343 166.569 343 165.431 331 165.431"></polygon>
                        <polygon id="Fill-131" fill="#503D97" points="358 166.569 370 166.569 370 165.431 358 165.431"></polygon>
                    </g>
                </g>
            </g>
        </g>
    </g>
</svg>